<svg width="440" height="110" viewBox="0 0 440 110" fill="none" xmlns="http://www.w3.org/2000/svg">
<path d="M143.469 7.6961H119.717V9.76762H122.467V29.3809H119.717V31.4525H128.47V29.3809H125.79V9.77203H137.461V29.3854H134.711V31.4569H143.464V29.3854H140.784V9.77203H143.464V7.6961H143.469ZM170.707 25.3261H168.503L168.164 29.3633H159.71V20.4778L167.481 20.7511V18.1198L159.71 18.4239V9.77203H168.159L168.499 13.8093H170.702V7.6961H153.672V9.76762H156.387V29.3809H153.672V31.4525H170.707V25.3261ZM180.945 31.4525H190.377V29.3809H186.984V22.3951H190.444C191.615 22.4074 192.781 22.244 193.903 21.9103C194.895 21.6183 195.818 21.1313 196.618 20.4778C197.377 19.8517 197.981 19.0581 198.381 18.1595C198.817 17.159 199.033 16.077 199.016 14.9861C199.057 13.5762 198.685 12.1851 197.945 10.9841C197.202 9.87284 196.136 9.01605 194.891 8.52912C193.365 7.93983 191.739 7.65677 190.104 7.6961H180.945V9.76762H183.66V29.3809H180.945V31.4525ZM186.984 20.3588V9.78084H189.628C190.794 9.74498 191.953 9.98509 193.009 10.4816C193.848 10.8919 194.54 11.5525 194.988 12.3724C195.429 13.2163 195.65 14.1576 195.631 15.1095C195.635 15.803 195.519 16.4919 195.287 17.1458C195.064 17.7667 194.718 18.3364 194.269 18.8206C193.815 19.3124 193.258 19.6989 192.638 19.9533C191.94 20.2398 191.19 20.3822 190.435 20.372L186.984 20.3588ZM208.655 31.4525H216.562V29.3809H213.847V13.7432C213.847 13.3289 213.825 12.9498 213.794 12.6105C213.764 12.2711 213.728 11.9934 213.693 11.7863C213.658 11.5791 213.64 11.4733 213.64 11.4689L213.742 11.4337C213.742 11.4337 213.781 11.535 213.856 11.7334C213.931 11.9317 214.05 12.1961 214.209 12.5355C214.367 12.8749 214.561 13.2495 214.795 13.6727L221.988 25.6831H222.393L229.961 13.7388C230.194 13.3756 230.401 12.9972 230.583 12.606C230.724 12.3194 230.849 12.0251 230.957 11.7245C231.041 11.4909 231.081 11.3719 231.081 11.3675L231.182 11.4028C231.182 11.4028 231.182 11.4821 231.16 11.6232C231.138 11.7642 231.12 11.9581 231.098 12.1873C231.076 12.4165 231.059 12.6677 231.041 12.9322C231.023 13.1966 231.014 13.4567 231.014 13.7079V29.3854H228.264V31.4569H236.85V29.3854H234.17V9.77203H236.85V7.6961H230.746L222.671 20.7643L215.086 7.6961H208.655V9.76762H211.335V29.3809H208.655V31.4525ZM265.142 14.704V8.5776C265.142 8.5776 265.001 8.49826 264.701 8.36163C264.292 8.18285 263.872 8.02832 263.445 7.89885C262.776 7.69494 262.094 7.53737 261.404 7.42724C260.479 7.28719 259.545 7.21794 258.61 7.22009C257.26 7.21242 255.918 7.4345 254.643 7.87681C253.472 8.28419 252.381 8.89437 251.421 9.67947C250.481 10.4526 249.671 11.3724 249.023 12.4033C248.367 13.4507 247.867 14.588 247.538 15.7794C247.192 17.0221 247.019 18.3064 247.022 19.5963C247.001 21.3501 247.287 23.094 247.869 24.7487C248.386 26.1984 249.204 27.5219 250.271 28.6317C251.333 29.6988 252.612 30.5255 254.022 31.0558C255.578 31.6485 257.231 31.9474 258.896 31.9373C259.758 31.9369 260.619 31.8854 261.475 31.783C262.137 31.7057 262.795 31.5924 263.445 31.4437C263.994 31.3144 264.413 31.2012 264.701 31.1043C264.989 31.0073 265.136 30.9559 265.142 30.95V24.8016H262.938L262.634 29.2091C262.138 29.3351 261.637 29.4352 261.131 29.5088C260.471 29.6032 259.805 29.6503 259.139 29.6498C258.102 29.6587 257.072 29.4749 256.102 29.1077C255.211 28.7683 254.392 28.2645 253.687 27.6224C252.982 26.9775 252.387 26.2229 251.924 25.3878C251.441 24.5135 251.079 23.578 250.848 22.6066C250.602 21.5803 250.479 20.5283 250.482 19.4729C250.482 18.4982 250.584 17.5261 250.786 16.5728C250.99 15.6347 251.31 14.7257 251.738 13.8666C252.152 13.0321 252.7 12.2712 253.36 11.6144C254.032 10.9522 254.827 10.4281 255.701 10.0717C256.682 9.68268 257.73 9.48808 258.786 9.49876C259.34 9.49677 259.894 9.54546 260.439 9.64421C260.878 9.72045 261.31 9.83399 261.73 9.98359C262.047 10.0966 262.356 10.2291 262.656 10.3803L262.929 14.6908L265.142 14.704ZM275.684 9.78525H278.399V29.3986H275.684V31.4701H284.438V29.3986H281.723V20.2222H284.367L292.38 31.4525H296.721V29.3809H294.861L287.122 18.5253L293.804 9.77203H295.774V7.6961H288.748V9.76762H290.683L285.116 18.1859H281.723V9.77203H284.438V7.6961H275.684V9.76762V9.78525ZM305.431 9.78525H308.146V29.3986H305.439V31.4701H311.478L322.571 13.3994C322.778 13.06 322.968 12.7206 323.144 12.3857C323.314 12.0656 323.461 11.7343 323.585 11.394L323.757 11.4601C323.669 11.7859 323.603 12.1172 323.559 12.4518C323.509 12.8214 323.484 13.1939 323.484 13.5669V29.3854H320.769V31.4569H329.522V29.3854H326.807V9.77203H329.522V7.6961H323.484L312.694 25.1762C312.456 25.5685 312.218 25.9696 311.989 26.3794C311.76 26.7893 311.548 27.2257 311.337 27.7017L311.2 27.6356C311.3 27.1631 311.369 26.6846 311.407 26.2032C311.451 25.7183 311.469 25.2247 311.469 24.7178V9.77203H314.184V7.6961H305.439V9.76762L305.431 9.78525ZM351.67 4.88412C352.362 4.88423 353.053 4.80587 353.728 4.65053C354.333 4.51541 354.923 4.32205 355.491 4.07314C355.986 3.85288 356.46 3.5904 356.91 3.28861C357.269 3.05412 357.605 2.78708 357.915 2.49086L356.081 0.203369C355.641 0.604451 355.2 0.987902 354.803 1.35813C354.386 1.71422 353.922 2.01086 353.424 2.23963C352.869 2.48619 352.268 2.6095 351.661 2.60104C351.054 2.6095 350.452 2.48619 349.898 2.23963C349.399 2.01086 348.935 1.71422 348.518 1.35813C348.099 0.99231 347.676 0.604451 347.24 0.203369L345.406 2.51289C345.724 2.80061 346.066 3.06016 346.429 3.28861C346.865 3.58685 347.326 3.84501 347.809 4.05992C348.375 4.31094 348.966 4.50437 349.572 4.6373C350.266 4.79422 350.975 4.87258 351.687 4.8709L351.67 4.88412ZM339.73 9.77203H342.462V29.3854H339.73V31.4569H345.768L356.862 13.3862C357.069 13.0468 357.258 12.7074 357.434 12.3724C357.604 12.0524 357.751 11.7211 357.875 11.3808L358.047 11.4469C357.959 11.7727 357.893 12.104 357.849 12.4386C357.799 12.8082 357.774 13.1807 357.774 13.5537V29.3854H355.059V31.4569H363.812V29.3854H361.106V9.77203H363.821V7.6961H357.783L346.989 25.1762C346.751 25.5685 346.513 25.9696 346.284 26.3794C346.054 26.7893 345.843 27.2257 345.631 27.7017L345.495 27.6356C345.595 27.1631 345.664 26.6846 345.702 26.2032C345.746 25.7183 345.763 25.2247 345.763 24.7178V9.77203H348.479V7.6961H339.73V9.76762V9.77203Z" fill="white"/>
<path d="M142.486 43.3967H134.429V45.4682H137.144L133.005 56.1211C132.873 56.4384 132.75 56.7646 132.631 57.0951C132.512 57.4257 132.397 57.7342 132.304 58.0163C132.212 58.2984 132.137 58.532 132.08 58.6995C132.022 58.8669 131.987 58.9639 131.987 58.9727H131.886C131.886 58.9727 131.859 58.8802 131.802 58.7083C131.745 58.5364 131.67 58.3116 131.577 58.0295C131.485 57.7474 131.374 57.4345 131.242 57.0951C131.11 56.7558 130.982 56.4208 130.837 56.0902L126.085 45.4682H128.8V43.3967H119.717V45.4682H122.432L130.339 62.1285C130.097 62.6158 129.78 63.0621 129.4 63.4507C129.024 63.823 128.573 64.1114 128.078 64.297C127.48 64.5122 126.848 64.6153 126.213 64.6011C125.926 64.6054 125.639 64.5773 125.358 64.5173C125.257 64.4959 125.156 64.468 125.058 64.4336V67.1486C125.128 67.1824 125.2 67.2104 125.274 67.2324C125.476 67.3063 125.684 67.3609 125.896 67.3954C126.236 67.4576 126.581 67.4886 126.927 67.488C127.676 67.4947 128.416 67.3193 129.082 66.9767C129.763 66.6088 130.362 66.1083 130.845 65.5046C131.414 64.7877 131.905 64.012 132.309 63.1907C132.75 62.2783 133.221 61.2602 133.666 60.1054L139.806 45.4461H142.521V43.3967H142.486ZM150.825 67.1486H159.578V65.0771H156.863V56.0021H168.873V65.0595H166.163V67.131H174.916V65.0595H172.201V45.4461H174.916V43.3967H166.163V45.4682H168.878V53.8424H156.863V45.4682H159.578V43.3967H150.82V45.4682H153.535V65.0815H150.82V67.153L150.825 67.1486ZM185.115 45.4505H187.83V65.0639H185.115V67.1354H191.153L202.247 49.0647C202.454 48.7253 202.643 48.3859 202.82 48.051C202.989 47.7309 203.137 47.3996 203.261 47.0593L203.432 47.1254C203.345 47.4512 203.278 47.7825 203.234 48.1171C203.184 48.4867 203.159 48.8592 203.159 49.2322V65.0418H200.453V67.1134H209.206V65.0418H206.491V45.4285H209.206V43.3967H203.186L192.396 60.8723C192.158 61.2602 191.92 61.6657 191.691 62.0756C191.462 62.4855 191.25 62.9218 191.039 63.3978L190.902 63.3317C191.002 62.8592 191.071 62.3807 191.109 61.8993C191.153 61.4145 191.171 60.9208 191.171 60.414V45.4505H193.886V43.3967H185.115V45.4682V45.4505ZM219.41 67.131H228.537C229.781 67.146 231.021 66.9978 232.227 66.6902C233.238 66.4273 234.191 65.979 235.039 65.368C235.799 64.8166 236.414 64.0892 236.832 63.248C237.264 62.3522 237.481 61.3684 237.467 60.3743C237.471 59.6507 237.338 58.9328 237.075 58.2587C236.83 57.6475 236.469 57.0893 236.013 56.6147C235.55 56.1406 235.011 55.7486 234.417 55.4555C233.792 55.1504 233.127 54.9339 232.443 54.812V54.6754C233.216 54.4154 233.936 54.0166 234.567 53.4986C235.15 53.0184 235.62 52.4167 235.946 51.7356C236.281 51.0134 236.451 50.2262 236.445 49.4305C236.473 48.3154 236.166 47.2175 235.563 46.2791C234.892 45.3233 233.954 44.5873 232.866 44.1636C231.433 43.6126 229.905 43.3519 228.37 43.3967H219.414V45.4682H222.138V65.0815H219.423V67.153L219.41 67.131ZM225.448 65.0595V55.7376H229.044C230.008 55.7151 230.962 55.9268 231.825 56.3547C232.548 56.7252 233.146 57.3 233.544 58.0075C233.943 58.7363 234.145 59.5567 234.131 60.3875C234.142 61.2261 233.929 62.0525 233.514 62.7808C233.096 63.4915 232.485 64.0681 231.751 64.4424C230.87 64.876 229.898 65.0907 228.917 65.0683L225.448 65.0595ZM233.183 49.6553C233.185 50.2206 233.099 50.7827 232.927 51.3213C232.77 51.8372 232.509 52.3157 232.16 52.7273C231.804 53.1417 231.35 53.46 230.838 53.6529H225.452V45.4505H228.203C229.023 45.4329 229.841 45.546 230.627 45.7855C231.203 45.9592 231.729 46.2691 232.16 46.689C232.526 47.0612 232.799 47.5142 232.958 48.0113C233.121 48.5408 233.2 49.0925 233.192 49.6465L233.183 49.6553ZM264.564 61.0266H262.361L262.021 65.0639H253.572V56.1387L261.342 56.412V53.7983L253.572 54.1024V45.4505H262.021L262.361 49.4878H264.564V43.3967H247.534V45.4682H250.249V65.0815H247.534V67.153H264.569V61.0266H264.564ZM274.803 67.1354H284.235V65.0639H280.841V58.0736H284.283C285.454 58.086 286.621 57.9225 287.743 57.5888C288.734 57.3008 289.657 56.8183 290.458 56.1696C291.217 55.5433 291.821 54.7498 292.221 53.8512C292.657 52.8507 292.873 51.7688 292.856 50.6778C292.897 49.2679 292.525 47.8769 291.785 46.6758C291.041 45.5648 289.976 44.708 288.731 44.2209C287.212 43.6374 285.593 43.3574 283.966 43.3967H274.803V45.4682H277.518V65.0815H274.803V67.153V67.1354ZM280.841 56.0417V45.4638H283.486C284.652 45.4279 285.81 45.668 286.866 46.1646C287.706 46.5748 288.397 47.2354 288.845 48.0554C289.286 48.8993 289.507 49.8405 289.489 50.7924C289.492 51.4859 289.376 52.1749 289.145 52.8287C288.921 53.4497 288.575 54.0193 288.127 54.5035C287.673 54.9948 287.118 55.3813 286.5 55.6362C285.801 55.9227 285.052 56.0652 284.297 56.055L280.841 56.0417ZM320.597 50.3737V44.2781C320.597 44.2781 320.456 44.1988 320.156 44.0622C319.747 43.8834 319.327 43.7289 318.9 43.5994C318.245 43.3928 317.576 43.2308 316.899 43.1146C315.974 42.9745 315.04 42.9053 314.104 42.9074C312.755 42.8997 311.413 43.1218 310.138 43.5641C308.966 43.9715 307.876 44.5817 306.916 45.3668C305.976 46.1373 305.167 47.054 304.518 48.0818C303.862 49.1292 303.362 50.2665 303.033 51.458C302.688 52.6949 302.515 53.9732 302.517 55.2572C302.496 57.0109 302.782 58.7549 303.363 60.4096C303.88 61.8593 304.699 63.1828 305.766 64.2926C306.824 65.3724 308.104 66.2113 309.516 66.7519C311.074 67.3356 312.727 67.6255 314.391 67.607C315.253 67.6067 316.114 67.5552 316.969 67.4527C317.632 67.3754 318.289 67.2621 318.94 67.1134C319.489 66.9841 319.908 66.8709 320.196 66.774C320.484 66.677 320.631 66.6256 320.636 66.6197V60.4801H318.433L318.129 64.8876C317.633 65.0136 317.131 65.1136 316.626 65.1873C315.966 65.2817 315.3 65.3288 314.633 65.3283C313.596 65.3372 312.567 65.1534 311.597 64.7862C310.706 64.4468 309.886 63.943 309.181 63.3009C308.477 62.656 307.882 61.9014 307.418 61.0663C306.936 60.192 306.574 59.2565 306.343 58.2852C306.097 57.2588 305.974 56.2068 305.977 55.1514C305.976 54.1767 306.078 53.2046 306.281 52.2513C306.485 51.3117 306.805 50.4012 307.233 49.5407C307.647 48.7062 308.195 47.9453 308.855 47.2885C309.527 46.6262 310.322 46.1021 311.196 45.7458C312.177 45.3568 313.225 45.1622 314.281 45.1729C314.835 45.1709 315.388 45.2196 315.934 45.3183C316.373 45.3946 316.805 45.5081 317.225 45.6577C317.541 45.7708 317.85 45.9032 318.151 46.0544L318.424 50.3649L320.597 50.3737ZM331.139 45.4549H333.854V65.0683H331.139V67.1398H337.173L348.267 49.0691C348.479 48.7297 348.664 48.3903 348.84 48.0554C349.009 47.7353 349.157 47.404 349.281 47.0637L349.448 47.1298C349.36 47.4556 349.294 47.7869 349.25 48.1215C349.2 48.4911 349.175 48.8636 349.175 49.2366V65.0462H346.46V67.1178H355.244V65.0462H352.529V45.4329H355.244V43.3967H349.206L338.416 60.8723C338.178 61.2602 337.94 61.6657 337.711 62.0756C337.482 62.4855 337.27 62.9218 337.059 63.3978L336.922 63.3317C337.023 62.8593 337.094 62.3808 337.134 61.8993C337.178 61.4145 337.195 60.9208 337.195 60.414V45.4505H339.91V43.3967H331.144V45.4682L331.139 45.4549ZM366.792 49.4922L367.131 45.4902H372.83V65.0683H369.789V67.1398H379.221V65.0683H376.166V45.4858H381.865L382.205 49.4878H384.408V43.3967H364.575V49.5054L366.792 49.4922ZM410.778 61.0266H408.575L408.235 65.0639H399.804V56.1387L407.574 56.412V53.7983L399.804 54.1024V45.4505H408.253L408.592 49.4878H410.796V43.3967H393.761V45.4682H396.476V65.0815H393.761V67.153H410.778V61.0266ZM422.374 49.4922L422.714 45.4902H428.413V65.0683H425.358V67.1398H434.79V65.0683H431.758V45.4858H437.457L437.796 49.4878H440V43.3967H420.166V49.5054L422.374 49.4922Z" fill="white"/>
<path d="M67.8757 42.0746L74.672 55.3235L74.7514 55.4778V65.258H74.0373C73.7156 65.258 73.3894 65.258 72.8694 65.258C68.9335 65.1786 65.3766 64.3765 65.2973 56.0419L60.5989 52.8465L60.4535 52.9479C59.5534 53.5649 58.5846 54.0752 57.5666 54.4684C56.6967 54.8029 55.7918 55.038 54.8692 55.1692L53.8511 60.3172H54.045C55.7815 60.4141 56.7468 61.1722 57.2845 62.3534C57.8222 63.5346 57.8663 64.9671 57.8663 66.5846V67.2986H44.3838V64.945V64.2531V60.4362H41.607V59.7045V59.634V59.5679V59.4357V59.2991V59.2021V59.1624V59.039V58.9376V58.8759V58.8098C41.607 58.7437 41.6291 58.6776 41.6423 58.6159V58.585V58.5542V58.4881V58.4572V58.3823V58.3206V58.2897V58.2589L41.6776 58.1355L41.7172 58.0121C41.7613 57.8798 41.8054 57.752 41.8583 57.6242C41.9438 57.4154 42.0424 57.2123 42.1536 57.016C42.4432 56.5081 42.8122 56.0498 43.2466 55.6585C43.4047 55.5166 43.571 55.3842 43.7447 55.2618H36.0889C35.368 55.93 34.5277 56.4564 33.6119 56.8132C33.4135 56.8882 33.224 56.9499 33.0477 56.9983V60.2951H33.0918C35.0751 60.2951 36.1418 61.0797 36.7235 62.3446C37.248 63.4818 37.3009 64.9583 37.3009 66.5758V67.2898H13.4652V60.4141H10.6797V59.7045C10.6783 58.9501 10.8344 58.2037 11.138 57.5131C11.4415 56.8225 11.8859 56.2028 12.4427 55.6937C12.6227 55.5349 12.8126 55.3877 13.0112 55.253H10.6797V54.539C10.6839 53.6397 10.9092 52.7552 11.3357 51.9636C11.7623 51.1719 12.3771 50.4973 13.1258 49.9993C13.236 49.9243 13.3506 49.8538 13.4696 49.7877V46.7289H12.1474L11.9579 46.2881C11.0982 44.3362 10.6625 42.224 10.6797 40.0912C10.684 37.0611 11.4802 34.0846 12.9892 31.4569C14.5642 28.6844 16.9732 26.4789 19.8737 25.1542C22.0497 24.194 24.4063 23.7115 26.7847 23.7394H46.1335C46.8834 22.6575 47.8298 21.7261 48.9235 20.9936C49.1394 20.8481 49.3642 20.7027 49.6419 20.5528C50.1469 20.2698 50.6747 20.0295 51.2198 19.8344C50.9724 19.3622 50.8295 18.8423 50.8006 18.31C50.7717 17.7777 50.8575 17.2454 51.0523 16.7492C51.2921 16.1791 51.6955 15.6929 52.2115 15.352C52.7281 15.0127 53.3301 14.8263 53.948 14.8143C55.1777 14.7878 56.5352 15.4225 57.5225 16.996H66.4432C67.4305 15.4225 68.788 14.7922 70.0177 14.8143C70.6357 14.8263 71.2377 15.0127 71.7543 15.352C72.2701 15.6931 72.6734 16.1793 72.9134 16.7492C73.3542 17.829 73.2704 19.2526 72.195 20.7556C76.6422 29.1783 73.8082 33.74 68.4619 38.1343V38.2533C68.4047 39.5445 68.2082 40.8257 67.8757 42.0746ZM34.7358 63.2746V65.8486H35.8861C35.9286 64.8538 35.779 63.8602 35.4454 62.922C35.1016 62.1727 34.4228 61.7099 33.1094 61.7099H31.6153V55.8039L32.2235 55.7069C32.372 55.6822 32.5191 55.6498 32.6642 55.61C32.8229 55.5659 32.9684 55.5218 33.105 55.4689C33.2681 55.4072 33.4311 55.3367 33.5942 55.2574H28.2656C27.545 55.926 26.7046 56.4523 25.7886 56.8088C25.5946 56.8837 25.4007 56.9455 25.2156 56.9939L25.0305 57.038L23.7303 60.3657C24.3027 60.4364 24.8462 60.6571 25.3059 61.0054C25.7656 61.3537 26.1252 61.8172 26.3483 62.349C26.7762 63.4735 26.9726 64.6728 26.9257 65.875H32.1309V63.3011H32.845V65.875H33.9953V63.3011L34.7358 63.2746ZM24.2239 63.2746V65.8486H25.5153C25.5575 64.8553 25.4079 63.8631 25.0745 62.9264C24.7308 62.1771 24.0476 61.7144 22.7386 61.7144H21.672L22.051 60.7447L23.8405 56.1786L23.9903 55.7907L24.2856 55.7466C25.8936 55.2988 27.3112 54.3377 28.3225 53.0098C29.3338 51.6818 29.8834 50.0597 29.8875 48.3905C29.8913 46.9026 29.4608 45.4459 28.649 44.199C28.4948 43.959 28.3271 43.7279 28.1466 43.507C28.0055 43.3351 27.8557 43.1676 27.7058 43.0046H29.5702C29.6716 43.1412 29.7685 43.2822 29.8567 43.4453C30.7974 44.9116 31.2962 46.6176 31.2935 48.3597C31.2932 50.3331 30.6478 52.2524 29.4556 53.825H41.6203C41.6809 53.3448 41.8054 52.8749 41.9905 52.4278C42.0764 52.2192 42.175 52.0161 42.2858 51.8195C42.7772 50.9559 43.495 50.2427 44.3617 49.7568L44.3176 42.9913H45.7413L45.7897 50.1888V50.6516L45.349 50.8411C44.5734 51.1908 43.9285 51.7771 43.5067 52.5159C43.2878 52.9105 43.1387 53.34 43.0659 53.7853H45.7897V55.8348L45.4019 56.0111H45.3666H45.3446L45.2476 56.0551H45.2036H45.1595H45.1242H45.089H45.0537H45.0184H44.992H44.9567H44.9303H44.851H44.8245H44.7496L44.6879 56.0992H44.6658L44.5645 56.1786L44.5116 56.2226L44.4675 56.2623L44.397 56.324L44.2559 56.4606L44.2119 56.5091L44.1722 56.5532L44.1502 56.5796L44.1149 56.6237L44.0929 56.6502L44.0708 56.6766L44.0223 56.7383L43.9298 56.8661C43.8439 56.9852 43.7644 57.1088 43.6918 57.2363C43.6506 57.3069 43.6125 57.3789 43.5772 57.4523V57.4788L43.5552 57.5272V57.5669V57.6022V57.6374L43.5023 57.7873V57.8358V57.8622V57.9019V57.9371V57.9768V58.0033L43.4714 58.1355V58.2148H46.1952V64.1517V65.0773H51.1889V62.5033H51.9029V65.0773H53.0533V62.5033H53.7673V65.0773H54.9177V62.5033H55.6317V65.0773H56.4162C56.4588 64.0839 56.3091 63.0917 55.9755 62.1551C55.6317 61.4058 54.9485 60.943 53.6395 60.943H52.0969L52.423 59.3079L52.8021 57.395L53.3883 54.4817L53.5646 53.6002L53.6703 53.0801L53.9568 51.6653L54.0318 51.2995L54.3711 51.1496C54.9433 51.1271 55.5111 51.0399 56.0636 50.8896C56.1606 50.8102 56.2619 50.7265 56.3633 50.6339C56.4647 50.5414 56.5705 50.4444 56.6586 50.3563C57.6716 49.3435 58.3801 48.0669 58.7037 46.6716C58.7675 46.3953 58.816 46.1158 58.8491 45.8342C58.8828 45.5518 58.9004 45.2678 58.902 44.9835V44.8249V43.0266H60.3256V44.816V44.9747C60.3253 45.3149 60.3062 45.6548 60.2684 45.9928C60.2298 46.3278 60.1724 46.6604 60.0965 46.9889C59.7145 48.6461 58.8745 50.1627 57.6723 51.3656C57.5533 51.489 57.4343 51.5948 57.3286 51.6917C57.2228 51.7887 57.095 51.8945 56.9671 52.0002C56.4435 52.4235 55.8744 52.7871 55.2703 53.0845L55.1513 53.6751C55.7977 53.5506 56.4319 53.3692 57.0465 53.133C57.9586 52.7806 58.8268 52.3235 59.6337 51.7711C63.574 49.0869 66.3727 44.2254 66.9281 39.3596C65.8526 40.1794 64.7023 41.0036 63.5123 41.863L62.3884 42.674L61.9696 42.9737L61.5509 42.674L60.4226 41.863C52.3966 36.076 46.279 31.6597 51.5107 21.2404C51.1025 21.3981 50.7062 21.5851 50.3251 21.8001C50.1311 21.9059 49.924 22.0381 49.708 22.1836C48.6747 22.8785 47.7955 23.7786 47.1252 24.8281L46.9181 25.1586H26.7847C24.6083 25.1319 22.4516 25.5723 20.4599 26.45C17.8297 27.6558 15.6472 29.6609 14.2233 32.1798C12.8392 34.5947 12.1114 37.3298 12.1121 40.1133C12.0993 41.8887 12.4285 43.65 13.0818 45.3009H13.5225V43.0046H14.9858V46.2749H14.8977V50.6824L14.4789 50.8763C14.286 50.9644 14.1003 51.0675 13.9236 51.1849C13.7464 51.3011 13.5784 51.4307 13.4211 51.5727C12.7744 52.1664 12.3407 52.9562 12.187 53.8205H14.8977V55.8656L14.4789 56.0596C14.0908 56.235 13.7324 56.4699 13.4167 56.7559C12.7694 57.348 12.3343 58.1361 12.1782 58.9993H14.8977V65.8662H19.7459V63.2922H20.4599V65.8662H21.6103V63.2922H22.3243V65.8662H23.4746V63.2922L24.2239 63.2746ZM72.173 61.2472V63.7859C72.411 63.7859 72.6534 63.8123 72.8958 63.8167H73.3366V55.8215L67.241 44.0007C66.1107 47.0625 64.2282 49.7907 61.7669 51.9341L66.3859 55.0767L66.6989 55.2882V55.6673C66.6989 60.3701 67.8713 62.3667 69.5682 63.2173V61.2692H70.2822V63.4994C70.6578 63.6138 71.0427 63.6949 71.4325 63.7418V61.2692L72.173 61.2472ZM56.6057 26.2076H60.5725L60.4755 26.8952C60.3785 27.596 60.2728 28.1954 60.1714 28.764C59.8012 30.8619 59.497 32.5941 60.3433 34.6171H63.5784C64.429 32.5941 64.1205 30.8663 63.7503 28.7684C63.6489 28.1954 63.5431 27.6004 63.4462 26.8996L63.358 26.2076H67.3247L64.7596 27.4241C64.8213 27.8075 64.8874 28.191 64.9535 28.5612C65.3943 30.9897 65.7336 32.9687 64.5128 35.4898L64.3497 35.8336H59.5676L59.4045 35.4898C58.2012 32.9643 58.5494 30.9897 58.9637 28.5612C59.0299 28.191 59.096 27.8075 59.1577 27.4241L56.6057 26.2076ZM61.9608 33.9648L63.2831 32.9952L62.7806 32.2283H61.1543L60.6518 32.9952L61.9741 33.9648H61.9608ZM61.2644 40.6906L61.9652 41.1931L62.6748 40.6818C70.3439 35.1681 76.1573 30.9853 70.7053 21.0332L70.4761 20.5925L70.7846 20.2178C71.7455 19.0499 71.8909 18.0141 71.5868 17.2825C71.4528 16.9835 71.2355 16.7295 70.9609 16.5508C70.6711 16.3609 70.3333 16.257 69.9869 16.2511C69.1494 16.2511 68.1886 16.758 67.479 18.0626L67.2763 18.4372H56.6983L56.4955 18.0626C55.7859 16.7403 54.8251 16.2335 53.9877 16.2511C53.6412 16.2572 53.3036 16.3611 53.0136 16.5508C52.7319 16.7353 52.511 16.9991 52.3789 17.3089C52.0704 18.0361 52.2203 19.0719 53.1811 20.2443L53.4896 20.6189L53.2604 21.0597C47.8084 31.0118 53.6219 35.1945 61.2909 40.7083L61.2644 40.6906Z" fill="white"/>
<path fill-rule="evenodd" clip-rule="evenodd" d="M60.5717 26.2075C60.4063 26.5966 60.13 26.9285 59.7773 27.1617C59.4247 27.395 59.0112 27.5193 58.5884 27.5193C58.1655 27.5193 57.752 27.395 57.3994 27.1617C57.0467 26.9285 56.7704 26.5966 56.605 26.2075H60.5717Z" fill="white"/>
<path fill-rule="evenodd" clip-rule="evenodd" d="M67.3242 26.2075C67.1587 26.5966 66.8824 26.9285 66.5298 27.1617C66.1771 27.395 65.7636 27.5193 65.3408 27.5193C64.918 27.5193 64.5045 27.395 64.1518 27.1617C63.7992 26.9285 63.5229 26.5966 63.3574 26.2075H67.3242Z" fill="white"/>
<path d="M64.8164 83.496V84.3511H69.29V83.496H67.8576V75.2188H67.6504L64.4771 75.9416L64.5432 76.6291L66.5882 76.4484V83.496H64.8164Z" fill="white"/>
<path d="M75.9454 76.0122L75.8176 75.0293C74.8203 75.1217 73.8534 75.422 72.9792 75.9108C72.2166 76.3558 71.6031 77.0168 71.2162 77.8104C70.7881 78.75 70.5815 79.7754 70.6124 80.8075C70.6085 81.2996 70.6768 81.7897 70.8151 82.262C70.9389 82.6828 71.1391 83.0772 71.4057 83.4256C71.6564 83.7514 71.9773 84.0165 72.3445 84.2013C72.7344 84.3907 73.1628 84.4872 73.5962 84.4834C74.0489 84.493 74.4987 84.4105 74.9185 84.2409C75.2761 84.092 75.5966 83.8663 75.8573 83.5798C76.109 83.2998 76.301 82.9714 76.4215 82.6146C76.5497 82.2417 76.6138 81.8497 76.611 81.4554C76.6156 81.0692 76.5499 80.6854 76.417 80.3227C76.2985 80.0087 76.117 79.7222 75.8837 79.4809C75.6609 79.2542 75.3938 79.0757 75.0992 78.9564C74.7934 78.8352 74.4673 78.7739 74.1384 78.7757C73.8198 78.7736 73.5025 78.8151 73.1952 78.8991C72.9147 78.9769 72.6484 79.0989 72.4062 79.2605C72.1792 79.4117 71.9845 79.6065 71.8333 79.8335C71.8776 79.3418 71.998 78.8601 72.1903 78.4054C72.3534 78.0251 72.5816 77.6761 72.8646 77.3741C73.1297 77.0967 73.4359 76.8618 73.7726 76.6777C74.1069 76.4936 74.4601 76.3458 74.8259 76.2369C75.1931 76.1315 75.5672 76.0519 75.9454 75.9989V76.0122ZM72.0536 81.6934C72.0513 81.4456 72.087 81.1988 72.1594 80.9618C72.2262 80.7414 72.3355 80.5363 72.4812 80.358C72.6289 80.1835 72.8142 80.0449 73.0233 79.9525C73.2642 79.8499 73.5239 79.7988 73.7858 79.8026C74.0827 79.7959 74.3751 79.8755 74.6276 80.0318C74.863 80.1854 75.0484 80.4045 75.1609 80.6621C75.2921 80.9573 75.3568 81.2778 75.3504 81.6009C75.3593 81.9457 75.2994 82.2888 75.1741 82.6102C75.0665 82.8876 74.8736 83.1237 74.6232 83.2845C74.3352 83.4539 74.0051 83.538 73.6712 83.5269C73.4306 83.5301 73.193 83.4741 72.9792 83.3639C72.7798 83.2561 72.6068 83.1056 72.4723 82.9231C72.3349 82.7463 72.2304 82.5463 72.1638 82.3325C72.0937 82.1207 72.058 81.8989 72.058 81.6758L72.0536 81.6934Z" fill="white"/>
<path d="M9.14063 83.496V84.3511H13.6142V83.496H12.1818V75.2188H11.9746L8.80566 75.9416L8.86737 76.6291L10.9124 76.4484V83.496H9.14063Z" fill="white"/>
<path d="M15.4707 83.5886L15.5986 84.5714C16.5959 84.4793 17.5629 84.179 18.437 83.6899C19.1997 83.2452 19.8133 82.584 20.2 81.7903C20.6281 80.8507 20.8346 79.8253 20.8038 78.7932C20.8089 78.301 20.7405 77.8108 20.6011 77.3387C20.4772 76.918 20.277 76.5235 20.0105 76.1752C19.7596 75.8495 19.4388 75.5844 19.0717 75.3994C18.6819 75.2098 18.2534 75.1132 17.8199 75.1174C17.3674 75.1084 16.9176 75.1908 16.4977 75.3598C16.1425 75.5067 15.8237 75.7293 15.5633 76.0121C15.3064 76.2923 15.1099 76.6223 14.9859 76.9817C14.8573 77.3545 14.7932 77.7465 14.7964 78.1409C14.7896 78.5269 14.8538 78.9109 14.9859 79.2736C15.1024 79.5876 15.2824 79.8742 15.5148 80.1155C15.7397 80.3438 16.0099 80.5225 16.3082 80.6399C16.6136 80.7621 16.94 80.8235 17.269 80.8207C17.5875 80.8223 17.9048 80.7808 18.2122 80.6972C18.4915 80.6199 18.7564 80.4979 18.9967 80.3358C19.2215 80.1849 19.4134 79.99 19.5609 79.7629C19.5192 80.2559 19.4002 80.7393 19.2083 81.1953C19.0471 81.5757 18.8204 81.9248 18.5384 82.2266C18.2735 82.5043 17.9672 82.7392 17.6304 82.923C17.2968 83.1088 16.9435 83.2566 16.577 83.3638C16.2101 83.4691 15.8359 83.5472 15.4575 83.5974L15.4707 83.5886ZM19.3626 77.9338C19.3656 78.1759 19.3299 78.4169 19.2568 78.6478C19.189 78.8637 19.0797 79.0644 18.935 79.2384C18.7877 79.4132 18.6023 79.552 18.3929 79.6439C18.1518 79.7458 17.8922 79.7968 17.6304 79.7937C17.3378 79.806 17.0485 79.728 16.8018 79.5703C16.555 79.4126 16.3627 79.1829 16.2509 78.9122C16.1194 78.6 16.0548 78.2637 16.0613 77.9249C16.0546 77.599 16.1193 77.2756 16.2509 76.9773C16.3696 76.711 16.5643 76.4856 16.8106 76.3294C17.0921 76.1643 17.4144 76.0818 17.7406 76.0914C17.984 76.0879 18.2246 76.1439 18.4414 76.2545C18.6412 76.3617 18.8144 76.5123 18.9482 76.6952C19.0836 76.8759 19.1865 77.0787 19.2524 77.2947C19.3224 77.5126 19.3581 77.7401 19.3581 77.969L19.3626 77.9338Z" fill="white"/>
<path d="M0.806571 7.83716H85.4083V66.567C85.4083 77.8928 80.9092 88.7548 72.9006 96.7634C64.892 104.772 54.03 109.271 42.7042 109.271C31.3783 109.271 20.5163 104.772 12.5078 96.7634C4.49918 88.7548 0 77.8928 0 66.567L0 7.83716H0.806571ZM42.7042 9.45911H1.61314V66.567C1.61314 77.4644 5.94213 87.9155 13.6478 95.6212C21.3534 103.327 31.8045 107.656 42.702 107.656C53.5994 107.656 64.0505 103.327 71.7561 95.6212C79.4618 87.9155 83.7908 77.4644 83.7908 66.567V9.45911H42.7042Z" fill="white"/>
<path d="M60.5941 72.9841L61.1274 73.1252V97.7851L60.2724 97.6132C54.19 96.3747 48.2664 97.3267 42.6865 99.7596C37.133 97.3223 31.1917 96.3791 25.1226 97.6088L24.2676 97.7807V73.1296L24.8009 72.9885C25.6647 72.7642 26.5421 72.5964 27.4277 72.4861C28.3639 72.3694 29.3054 72.3003 30.2485 72.2789C34.9469 72.1643 40.0244 73.1296 42.7041 74.8661C45.3795 73.1296 50.4613 72.1643 55.1597 72.2789C56.1028 72.3003 57.0443 72.3694 57.9805 72.4861C58.8599 72.5942 59.7315 72.7591 60.5897 72.9797L60.5941 72.9841ZM27.6966 78.3701C28.5252 78.2731 29.3847 78.2158 30.2529 78.1938C33.6071 78.0853 36.9548 78.558 40.1478 79.591V80.5915C37.5033 79.5866 33.801 79.0577 30.275 79.1414C29.3935 79.1414 28.512 79.2207 27.6966 79.3221V78.3701ZM27.6966 82.3368C28.5252 82.2399 29.3847 82.1826 30.2529 82.1605C33.6071 82.052 36.9548 82.5247 40.1478 83.5577V84.5582C37.5033 83.5489 33.801 83.0244 30.275 83.1081C29.3935 83.1081 28.512 83.1875 27.6966 83.2888V82.3368ZM27.6966 86.3036C28.5252 86.2066 29.3847 86.1493 30.2529 86.1273C33.6071 86.0188 36.9548 86.4914 40.1478 87.5244V88.525C37.5033 87.5156 33.801 86.9911 30.275 87.0749C29.3935 87.0749 28.512 87.1542 27.6966 87.2556V86.3036ZM27.6966 90.2703C28.5252 90.1734 29.3847 90.1161 30.2529 90.094C33.6071 89.9855 36.9548 90.4582 40.1478 91.4912V92.4917C37.5033 91.4824 33.801 90.9579 30.275 91.0416C29.3935 91.0416 28.512 91.121 27.6966 91.2223V90.2703ZM41.9945 97.9041V76.1091C39.5968 74.4915 34.7838 73.6012 30.2838 73.707C29.3893 73.7266 28.4964 73.7913 27.6085 73.9009C26.9429 73.9846 26.2862 74.0948 25.6912 74.2315V96.0573C31.1929 95.1375 36.8422 95.7772 41.9989 97.9041H41.9945ZM57.7116 79.3177C56.8786 79.2163 56.0103 79.1546 55.1332 79.137C51.6072 79.0533 47.8917 79.5777 45.2605 80.5871V79.5866C48.4534 78.5536 51.8011 78.0809 55.1553 78.1894C56.0368 78.1894 56.883 78.2687 57.7116 78.3657V79.3177ZM57.7116 83.2844C56.8786 83.1831 56.0103 83.1214 55.1332 83.1037C51.6072 83.02 47.8917 83.5445 45.2605 84.5538V83.5533C48.4536 82.5298 51.7997 82.066 55.1509 82.1826C56.0324 82.1826 56.8786 82.2619 57.7072 82.3589V83.3109L57.7116 83.2844ZM57.7116 87.2512C56.8786 87.1498 56.0103 87.0881 55.1332 87.0705C51.6072 86.9867 47.8917 87.5112 45.2605 88.5205V87.52C48.4536 86.4965 51.7997 86.0328 55.1509 86.1493C56.0324 86.1493 56.8786 86.2286 57.7072 86.3256V87.2776L57.7116 87.2512ZM57.7116 91.2179C56.8786 91.1166 56.0103 91.0548 55.1332 91.0372C51.6072 90.9535 47.8917 91.478 45.2605 92.4873V91.4868C48.4536 90.4632 51.7997 89.9995 55.1509 90.1161C56.0324 90.1161 56.8786 90.1954 57.7072 90.2924V91.2444L57.7116 91.2179ZM59.717 74.2491C59.1088 74.1125 58.4653 74.0023 57.7998 73.9185C56.9118 73.809 56.0189 73.7442 55.1244 73.7246C50.6244 73.6188 45.8114 74.5135 43.4137 76.1267V97.9261C48.5705 95.7997 54.2197 95.16 59.7214 96.0794V74.2491H59.717Z" fill="white"/>
<path d="M0.793457 65.8445H84.6151V67.2813H0.793457V65.8445Z" fill="white"/>
<path d="M119.857 102.62H122.312C122.312 102.62 122.312 102.554 122.312 102.431C122.312 102.307 122.29 102.135 122.272 101.924C122.255 101.712 122.246 101.483 122.233 101.219C122.22 100.954 122.233 100.685 122.233 100.408V94.9644H123.709L129.501 102.757L132.335 102.638L132.194 102.488C132.101 102.391 131.978 102.263 131.832 102.1L131.343 101.545C131.176 101.351 131.017 101.153 130.867 100.954L125.622 93.9022C126.357 93.0001 126.996 92.2024 127.539 91.5089C128.086 90.8126 128.558 90.1867 128.954 89.6622C129.351 89.1377 129.695 88.6441 129.986 88.2166C130.276 87.789 130.532 87.3879 130.761 87.0177C130.99 86.6475 131.202 86.2773 131.414 85.9158H128.963C128.782 86.2376 128.606 86.5593 128.421 86.8723C128.236 87.1852 128.024 87.529 127.782 87.8948C127.539 88.2606 127.244 88.6837 126.9 89.1642C126.557 89.6446 126.133 90.2087 125.64 90.8655C125.146 91.5222 124.556 92.3199 123.85 93.2014H122.18V85.7924L119.703 85.9114L119.725 86.123L119.773 86.6827C119.794 86.9178 119.81 87.1793 119.822 87.4673C119.822 87.7582 119.844 88.0579 119.844 88.3488V102.603L119.857 102.62ZM141.145 102.62H143.481C143.481 102.62 143.481 102.554 143.481 102.431C143.481 102.307 143.459 102.153 143.442 101.955C143.424 101.756 143.415 101.545 143.402 101.316C143.389 101.086 143.402 100.875 143.402 100.646V90.7024H135.358C135.335 92.1892 135.288 93.4762 135.217 94.5633C135.165 95.4872 135.058 96.407 134.895 97.318C134.789 97.9526 134.604 98.5715 134.345 99.1604C134.154 99.5895 133.867 99.9694 133.507 100.271C133.163 100.548 132.763 100.746 132.335 100.853L132.978 102.761C133.734 102.637 134.441 102.309 135.023 101.812C135.605 101.314 136.039 100.667 136.279 99.9405C136.637 98.9564 136.873 97.9321 136.98 96.8905C137.136 95.6593 137.24 94.1769 137.293 92.4433H141.154V102.62H141.145ZM157.012 100.522L156.827 100.646C156.687 100.734 156.539 100.81 156.386 100.875C156.223 100.949 156.046 100.991 155.866 100.998C155.793 101.004 155.72 100.991 155.653 100.961C155.586 100.931 155.527 100.885 155.483 100.826C155.402 100.709 155.362 100.568 155.368 100.425C155.368 100.13 155.368 99.795 155.368 99.416C155.368 99.0369 155.368 98.6359 155.368 98.2216C155.368 97.8073 155.368 97.3797 155.39 96.9566C155.412 96.5335 155.39 96.1368 155.412 95.7622C155.434 95.3875 155.412 95.0482 155.412 94.7529C155.456 93.907 155.295 93.0631 154.941 92.2935C154.63 91.6802 154.12 91.1907 153.495 90.9051C152.771 90.5881 151.985 90.4375 151.194 90.4644C150.592 90.4639 149.991 90.5111 149.396 90.6054C148.949 90.6746 148.507 90.7747 148.074 90.9051C147.792 90.9893 147.515 91.0909 147.245 91.2092C147.148 91.2499 147.052 91.2955 146.959 91.3459V93.1353L147.214 93.0163C147.449 92.9165 147.689 92.8296 147.933 92.7563C148.303 92.6447 148.68 92.5578 149.061 92.4962C149.548 92.4167 150.04 92.3769 150.533 92.3772C151.044 92.3565 151.554 92.439 152.032 92.6196C152.422 92.7828 152.736 93.0864 152.913 93.4703C153.13 93.984 153.23 94.5396 153.204 95.0966V95.8459H152.323C151.966 95.8459 151.582 95.8768 151.172 95.9076C150.762 95.9385 150.357 95.9826 149.96 96.0487C149.202 96.1495 148.472 96.3981 147.809 96.7803C147.283 97.085 146.845 97.5227 146.54 98.0497C146.259 98.5613 146.115 99.1366 146.121 99.7201C146.119 100.121 146.184 100.518 146.315 100.897C146.443 101.27 146.647 101.612 146.915 101.902C147.205 102.208 147.558 102.448 147.95 102.603C148.432 102.785 148.943 102.875 149.458 102.867C150.161 102.871 150.858 102.74 151.512 102.479C152.14 102.216 152.718 101.848 153.222 101.391C153.315 101.817 153.548 102.2 153.883 102.479C154.25 102.748 154.697 102.885 155.152 102.867C155.615 102.866 156.07 102.748 156.475 102.523C156.601 102.451 156.723 102.372 156.84 102.285L156.968 102.179V100.535L157.012 100.522ZM150.194 101.047C149.857 101.053 149.523 100.979 149.22 100.831C148.968 100.706 148.757 100.51 148.616 100.267C148.474 100.017 148.401 99.7341 148.404 99.4468C148.395 99.1486 148.462 98.8528 148.598 98.5874C148.757 98.3082 148.987 98.0756 149.264 97.913C149.657 97.6858 150.082 97.5194 150.524 97.4194C150.877 97.3312 151.221 97.2695 151.547 97.2211C151.873 97.1726 152.186 97.1417 152.468 97.1197L153.191 97.0624C153.191 97.5648 153.169 98.0673 153.16 98.5742C153.151 99.081 153.16 99.5879 153.16 100.086C152.922 100.24 152.675 100.38 152.42 100.505C152.099 100.661 151.764 100.787 151.419 100.879C151.023 100.986 150.614 101.041 150.203 101.042L150.194 101.047ZM164.382 92.3464C164.731 92.3505 165.08 92.3903 165.422 92.4654C165.77 92.5403 166.127 92.624 166.493 92.7122C166.872 92.7985 167.256 92.8589 167.643 92.8929L167.833 90.9404C167.453 90.9157 167.076 90.8642 166.704 90.7861C166.356 90.7112 165.999 90.6407 165.638 90.5702C165.245 90.5003 164.847 90.4649 164.448 90.4644C163.687 90.459 162.934 90.6232 162.244 90.9448C161.569 91.2663 160.968 91.7257 160.481 92.2935C159.958 92.9061 159.556 93.6119 159.295 94.3738C159.002 95.2247 158.853 96.1184 158.855 97.0183C158.846 97.8112 158.966 98.6003 159.212 99.3543C159.431 100.036 159.793 100.662 160.274 101.192C160.762 101.724 161.365 102.137 162.037 102.4C162.816 102.702 163.647 102.852 164.483 102.841C164.959 102.842 165.434 102.801 165.902 102.717C166.261 102.655 166.615 102.565 166.96 102.448C167.186 102.374 167.407 102.284 167.621 102.179L167.846 102.056V100.293L167.626 100.394C167.48 100.456 167.273 100.531 167.004 100.615C166.29 100.831 165.547 100.94 164.8 100.937C164.246 100.945 163.698 100.828 163.196 100.593C162.744 100.371 162.349 100.048 162.041 99.6496C161.722 99.2219 161.485 98.7394 161.34 98.226C161.181 97.652 161.103 97.0586 161.107 96.463C161.09 95.7206 161.208 94.9814 161.455 94.2813C161.657 93.7077 162.029 93.2095 162.522 92.8532C163.064 92.4977 163.703 92.3191 164.351 92.342L164.382 92.3464ZM175.471 92.3464C175.821 92.3505 176.169 92.3903 176.511 92.4654C176.859 92.5403 177.216 92.624 177.582 92.7122C177.961 92.7985 178.345 92.8589 178.732 92.8929L178.922 90.9404C178.543 90.9157 178.166 90.8642 177.794 90.7861C177.445 90.7112 177.088 90.6407 176.731 90.5702C176.339 90.5003 175.94 90.4649 175.541 90.4644C174.78 90.459 174.027 90.6232 173.338 90.9448C172.662 91.2663 172.062 91.7257 171.575 92.2935C171.052 92.9061 170.65 93.6119 170.389 94.3738C170.096 95.2247 169.947 96.1184 169.948 97.0183C169.939 97.8112 170.06 98.6003 170.305 99.3543C170.525 100.036 170.887 100.662 171.367 101.192C171.856 101.724 172.459 102.137 173.13 102.4C173.91 102.702 174.741 102.852 175.577 102.841C176.052 102.842 176.527 102.801 176.996 102.717C177.358 102.658 177.714 102.571 178.062 102.457C178.289 102.382 178.509 102.293 178.724 102.188L178.948 102.065V100.302L178.728 100.403C178.583 100.465 178.375 100.54 178.107 100.624C177.392 100.84 176.649 100.949 175.903 100.945C175.349 100.954 174.8 100.836 174.298 100.602C173.846 100.38 173.451 100.057 173.144 99.6584C172.825 99.2307 172.588 98.7482 172.443 98.2348C172.284 97.6608 172.205 97.0674 172.209 96.4718C172.192 95.7295 172.31 94.9902 172.558 94.2901C172.759 93.7165 173.131 93.2183 173.624 92.862C174.166 92.5065 174.805 92.3279 175.453 92.3508L175.471 92.3464ZM181.818 102.62H184.021L189.24 94.7529C189.429 94.462 189.592 94.1887 189.729 93.9375C189.866 93.6862 189.967 93.4967 190.038 93.3248L190.143 93.0824H190.214C190.214 93.0824 190.214 93.1662 190.179 93.316C190.143 93.4659 190.13 93.6818 190.108 93.9507C190.086 94.2196 190.077 94.5237 190.073 94.8675V102.611H192.409C192.409 102.611 192.409 102.545 192.409 102.422C192.409 102.298 192.387 102.127 192.369 101.915C192.352 101.703 192.343 101.474 192.329 101.21C192.316 100.945 192.329 100.677 192.329 100.399V90.5834L190.126 90.7024L185.119 98.1951C184.89 98.5389 184.678 98.865 184.528 99.1692C184.378 99.4733 184.242 99.7157 184.154 99.9096C184.065 100.104 184.021 100.196 184.021 100.201H183.924L183.946 100.007L183.995 99.4909C184.015 99.2735 184.032 99.0311 184.043 98.7637C184.043 98.4992 184.065 98.2216 184.065 97.9395V90.5834L181.707 90.7024C181.707 90.7024 181.707 90.7773 181.729 90.9183L181.778 91.4737C181.799 91.7088 181.815 91.9703 181.826 92.2582C181.826 92.5491 181.848 92.8488 181.848 93.1397V102.603L181.818 102.62ZM196.054 102.62H198.39C198.39 102.62 198.39 102.554 198.39 102.431C198.39 102.307 198.368 102.135 198.35 101.924C198.332 101.712 198.324 101.483 198.31 101.219C198.297 100.954 198.31 100.685 198.31 100.408V97.3797H199.43L203.577 102.744L206.2 102.625L206.054 102.466L205.675 102.052C205.521 101.88 205.354 101.686 205.173 101.474C204.992 101.263 204.82 101.034 204.648 100.835L201.193 96.4277L203.123 93.9948C203.674 93.294 204.12 92.699 204.446 92.2318C204.772 91.7646 205.019 91.3503 205.169 91.1123C205.318 90.8743 205.389 90.7288 205.384 90.7288H203.097C203.097 90.7288 203.044 90.8258 202.934 91.0153C202.824 91.2048 202.63 91.5089 202.361 91.8968C202.092 92.2847 201.726 92.818 201.259 93.4527L199.518 95.7886H198.302V90.5834L195.944 90.7024C195.944 90.7024 195.944 90.7773 195.966 90.9183C195.988 91.0594 195.992 91.2401 196.014 91.4737C196.036 91.7073 196.049 91.9717 196.063 92.2582C196.076 92.5447 196.085 92.8488 196.085 93.1397V102.603L196.054 102.62ZM218.012 100.522L217.827 100.646C217.686 100.734 217.539 100.81 217.386 100.875C217.222 100.949 217.046 100.991 216.866 100.998C216.793 101.004 216.719 100.991 216.652 100.961C216.586 100.931 216.527 100.885 216.483 100.826C216.401 100.709 216.361 100.568 216.368 100.425C216.368 100.13 216.368 99.795 216.368 99.416C216.368 99.0369 216.368 98.6359 216.368 98.2216C216.368 97.8073 216.368 97.3797 216.39 96.9566C216.412 96.5335 216.39 96.1368 216.412 95.7622C216.434 95.3875 216.412 95.0482 216.412 94.7529C216.456 93.907 216.294 93.0631 215.94 92.2935C215.63 91.6802 215.12 91.1907 214.495 90.9051C213.77 90.5881 212.984 90.4375 212.194 90.4644C211.592 90.4639 210.991 90.5111 210.396 90.6054C209.949 90.6746 209.507 90.7748 209.074 90.9051C208.793 90.9895 208.518 91.0911 208.249 91.2092C208.152 91.2499 208.056 91.2955 207.963 91.3459V93.1353L208.218 93.0163C208.453 92.9164 208.693 92.8296 208.937 92.7563C209.307 92.6447 209.684 92.5578 210.065 92.4962C210.552 92.4167 211.044 92.3769 211.537 92.3772C212.048 92.3565 212.558 92.439 213.036 92.6196C213.426 92.7828 213.74 93.0864 213.917 93.4703C214.134 93.984 214.234 94.5396 214.208 95.0966V95.8459H213.327C212.97 95.8459 212.586 95.8768 212.176 95.9076C211.767 95.9385 211.361 95.9826 210.964 96.0487C210.206 96.1496 209.476 96.3982 208.813 96.7803C208.304 97.0917 207.884 97.5288 207.593 98.0497C207.312 98.5613 207.168 99.1366 207.174 99.7201C207.171 100.121 207.237 100.518 207.368 100.897C207.495 101.27 207.699 101.612 207.967 101.902C208.257 102.208 208.611 102.448 209.003 102.603C209.484 102.785 209.996 102.875 210.51 102.867C211.214 102.871 211.911 102.74 212.564 102.479C213.192 102.216 213.77 101.848 214.274 101.391C214.369 101.817 214.603 102.2 214.94 102.479C215.307 102.748 215.754 102.885 216.209 102.867C216.672 102.866 217.127 102.748 217.532 102.523C217.658 102.451 217.78 102.372 217.897 102.285L218.025 102.179V100.535L218.012 100.522ZM211.194 101.047C210.856 101.053 210.523 100.979 210.219 100.831C209.967 100.706 209.757 100.51 209.616 100.267C209.473 100.017 209.4 99.7341 209.404 99.4468C209.395 99.1486 209.462 98.8528 209.598 98.5874C209.75 98.3131 209.97 98.0824 210.237 97.9174C210.63 97.6902 211.055 97.5238 211.498 97.4238C211.85 97.3356 212.194 97.2739 212.52 97.2255C212.846 97.177 213.159 97.1461 213.441 97.1241L214.164 97.0668C214.164 97.5692 214.142 98.0717 214.133 98.5786C214.125 99.0854 214.133 99.5923 214.133 100.09C213.895 100.244 213.648 100.384 213.393 100.509C213.072 100.666 212.737 100.791 212.392 100.884C211.996 100.991 211.587 101.046 211.176 101.047H211.194ZM231.393 92.7298C231.903 92.6998 232.413 92.7916 232.881 92.9978C233.348 93.204 233.76 93.5185 234.082 93.9154C234.699 94.7044 235.012 95.8856 235.016 97.4414C235.02 97.9294 234.944 98.4147 234.791 98.8783C234.648 99.3111 234.427 99.7143 234.139 100.068C233.856 100.421 233.496 100.705 233.086 100.897C232.677 101.09 232.229 101.186 231.777 101.179C231.267 101.209 230.758 101.118 230.291 100.913C229.824 100.709 229.411 100.397 229.088 100.002C228.471 99.2176 228.158 98.0453 228.154 96.4762C228.149 95.9867 228.225 95.4999 228.378 95.0349C228.521 94.5989 228.742 94.1926 229.031 93.8361C229.312 93.4806 229.672 93.1945 230.081 92.9996C230.491 92.8048 230.94 92.7065 231.393 92.7122V92.7298ZM227.426 93.3248C227.532 92.4607 227.738 91.6117 228.039 90.7949C228.295 90.1075 228.681 89.4759 229.176 88.935C229.673 88.4101 230.273 87.9943 230.939 87.7141C231.744 87.3882 232.591 87.1818 233.456 87.1015C234.271 87.0177 234.91 86.934 235.382 86.8458C235.853 86.7577 236.188 86.6827 236.382 86.6254C236.482 86.6011 236.579 86.5686 236.673 86.5285L236.413 84.479L236.299 84.5187C236.215 84.5451 236.065 84.5804 235.858 84.6289C235.651 84.6773 235.338 84.7302 234.946 84.7875C234.553 84.8448 234.064 84.9109 233.421 84.977C232.349 85.0716 231.298 85.3241 230.3 85.7263C229.483 86.0643 228.744 86.5652 228.127 87.1984C227.537 87.8304 227.073 88.5695 226.761 89.3757C226.407 90.2977 226.169 91.26 226.051 92.2406C225.903 93.4099 225.833 94.5879 225.844 95.7666C225.829 96.8214 225.961 97.8731 226.236 98.8915C226.451 99.6936 226.828 100.443 227.343 101.095C227.8 101.667 228.388 102.12 229.057 102.417C229.753 102.715 230.504 102.865 231.261 102.858C232.387 102.884 233.501 102.62 234.496 102.091C235.397 101.585 236.122 100.816 236.576 99.8876C237.092 98.8166 237.346 97.6382 237.317 96.4497C237.325 95.699 237.2 94.9528 236.947 94.246C236.714 93.5999 236.351 93.0087 235.88 92.5094C235.399 92.0124 234.815 91.6259 234.17 91.3767C233.44 91.0964 232.664 90.9573 231.882 90.9668C231.002 90.9564 230.133 91.1686 229.357 91.5839C228.61 92.0035 227.985 92.6113 227.545 93.3469L227.426 93.3248ZM243.236 108.676C243.236 108.676 243.28 108.469 243.377 108.05C243.474 107.632 243.668 106.984 243.941 106.12C244.214 105.256 244.602 104.167 245.118 102.841L247.978 95.5242C248.181 95.0129 248.38 94.4752 248.573 93.9198C248.767 93.3645 248.939 92.8136 249.08 92.267C249.216 91.757 249.309 91.2366 249.358 90.7112H247.26C247.225 91.0329 247.181 91.3415 247.123 91.6412C247.066 91.9409 246.996 92.245 246.907 92.5623C246.819 92.8797 246.714 93.2411 246.581 93.6378C246.449 94.0344 246.295 94.5193 246.114 95.0261L245.303 97.3841C245.153 97.8249 245.025 98.2171 244.911 98.605C244.796 98.9929 244.704 99.3366 244.629 99.6408C244.554 99.9449 244.492 100.183 244.457 100.355L244.395 100.624H244.298L244.241 100.359C244.206 100.187 244.148 99.9581 244.082 99.6628C244.016 99.3675 243.932 99.0502 243.835 98.6932C243.738 98.3362 243.628 97.9703 243.509 97.5957L241.195 90.5878L238.643 90.7068C238.643 90.7068 238.696 90.8126 238.784 91.0197C238.873 91.2269 239 91.5134 239.15 91.8792C239.3 92.245 239.463 92.6725 239.644 93.1618L243.099 102.722L242.91 103.162C242.501 104.103 242.172 104.914 241.923 105.595C241.673 106.277 241.494 106.847 241.385 107.305C241.253 107.746 241.166 108.072 241.125 108.284C241.081 108.5 241.059 108.601 241.063 108.601L243.267 108.698L243.236 108.676ZM253.373 90.7068C253.334 92.1745 253.272 93.4659 253.179 94.5854C253.108 95.5578 252.977 96.5248 252.787 97.4811C252.654 98.1922 252.432 98.8837 252.126 99.5394C251.883 100.06 251.539 100.526 251.112 100.91H250.085L250.345 106.6L252.373 106.481C252.373 106.481 252.373 106.415 252.373 106.292C252.373 106.168 252.351 106.014 252.333 105.816C252.315 105.617 252.307 105.406 252.293 105.177C252.28 104.947 252.293 104.736 252.293 104.507V102.625H261.135L261.302 106.591L263.33 106.472C263.33 106.472 263.33 106.406 263.33 106.283C263.33 106.159 263.308 106.005 263.29 105.807C263.272 105.609 263.264 105.397 263.25 105.168C263.237 104.939 263.25 104.727 263.25 104.498V100.897H261.39V90.7024L253.373 90.7068ZM255.233 92.4477H259.072V100.91H253.342C253.907 100.324 254.347 99.3278 254.665 97.9395C255.033 96.1316 255.226 94.2926 255.242 92.4477H255.233ZM268.588 108.681C268.588 108.681 268.632 108.473 268.729 108.055C268.826 107.636 269.02 106.988 269.293 106.124C269.566 105.26 269.954 104.172 270.47 102.845L273.33 95.5286C273.533 95.0173 273.731 94.4796 273.925 93.9243C274.119 93.3689 274.291 92.818 274.432 92.2714C274.568 91.7614 274.661 91.241 274.71 90.7156H272.612C272.577 91.0373 272.533 91.3459 272.475 91.6456C272.418 91.9453 272.347 92.2494 272.259 92.5667C272.171 92.8841 272.065 93.2455 271.933 93.6422C271.801 94.0388 271.647 94.5237 271.466 95.0305L270.655 97.3885C270.505 97.8293 270.377 98.2216 270.263 98.6094C270.148 98.9973 270.056 99.3411 269.981 99.6452C269.906 99.9493 269.844 100.187 269.809 100.359L269.747 100.628H269.65L269.593 100.364C269.558 100.192 269.5 99.9625 269.434 99.6672C269.368 99.3719 269.284 99.0546 269.187 98.6976C269.09 98.3406 268.98 97.9747 268.861 97.6001L266.547 90.5922L263.995 90.7112C263.995 90.7112 264.048 90.817 264.136 91.0241C264.224 91.2313 264.352 91.5178 264.502 91.8836C264.652 92.2494 264.815 92.6769 264.996 93.1662L268.451 102.726L268.262 103.167C267.853 104.107 267.524 104.918 267.274 105.6C267.025 106.281 266.844 106.85 266.732 107.305C266.6 107.746 266.513 108.072 266.472 108.284C266.428 108.5 266.406 108.601 266.411 108.601L268.614 108.698L268.588 108.681ZM277.055 102.625H292.975L293.142 106.591L295.169 106.472C295.169 106.472 295.169 106.406 295.169 106.283C295.169 106.159 295.147 106.005 295.13 105.807C295.112 105.609 295.103 105.397 295.09 105.168C295.077 104.939 295.09 104.727 295.09 104.498V100.897H293.23V90.5834L290.872 90.7024L290.894 90.9183C290.894 91.055 290.921 91.2401 290.943 91.4737C290.965 91.7073 290.978 91.9717 290.996 92.2582C291.013 92.5447 290.996 92.8488 290.996 93.1397V100.888H286.24V90.5834L283.882 90.7024L283.904 90.9183L283.952 91.4737C283.952 91.7073 283.988 91.9717 284.005 92.2582C284.023 92.5447 284.005 92.8488 284.005 93.1397V100.888H279.28V90.5834L276.922 90.7024C276.922 90.7024 276.922 90.7773 276.944 90.9183C276.967 91.0594 276.971 91.2401 276.993 91.4737C277.015 91.7073 277.028 91.9717 277.041 92.2582C277.055 92.5447 277.063 92.8488 277.063 93.1397V102.603L277.055 102.625ZM302.561 90.4688C301.778 90.4622 301.002 90.6121 300.278 90.9095C299.584 91.1939 298.962 91.629 298.457 92.1833C297.916 92.7835 297.506 93.4907 297.254 94.2592C296.952 95.1731 296.803 96.1307 296.813 97.0932C296.804 97.8955 296.934 98.6933 297.197 99.4512C297.435 100.131 297.817 100.752 298.316 101.272C298.83 101.8 299.457 102.206 300.15 102.457C300.944 102.745 301.783 102.887 302.627 102.876C303.191 102.876 303.753 102.833 304.311 102.748C304.74 102.685 305.164 102.592 305.58 102.47C305.851 102.392 306.117 102.299 306.378 102.193L306.655 102.065V100.324L306.369 100.425C306.184 100.487 305.928 100.562 305.615 100.646C305.302 100.729 304.95 100.804 304.553 100.87C304.152 100.935 303.747 100.969 303.341 100.972C302.542 100.996 301.748 100.824 301.031 100.469C300.43 100.147 299.944 99.6448 299.643 99.0325C299.298 98.3121 299.11 97.5262 299.092 96.7274H307.365C307.491 95.9124 307.491 95.083 307.365 94.268C307.248 93.5558 306.98 92.8767 306.58 92.2758C306.176 91.7044 305.629 91.2486 304.994 90.9536C304.239 90.6154 303.418 90.4498 302.592 90.4688H302.561ZM302.464 92.0907C302.887 92.0816 303.307 92.1659 303.694 92.3376C304.019 92.4856 304.303 92.7129 304.518 92.9987C304.727 93.2881 304.877 93.6162 304.958 93.9639C305.051 94.3415 305.091 94.7301 305.077 95.1187L299.141 95.2156C299.229 94.6407 299.428 94.0884 299.727 93.5893C300.001 93.1349 300.387 92.7573 300.846 92.4918C301.337 92.2204 301.89 92.0822 302.451 92.0907H302.464ZM310.309 102.625H312.645C312.645 102.625 312.645 102.559 312.645 102.435C312.645 102.312 312.623 102.157 312.605 101.959C312.588 101.761 312.579 101.549 312.566 101.32C312.553 101.091 312.566 100.879 312.566 100.65V92.4918H315.902C316.224 92.4918 316.528 92.4918 316.819 92.5227C317.11 92.5535 317.344 92.5579 317.529 92.58L317.811 92.6108L317.908 90.7024H310.181C310.181 90.7024 310.181 90.7773 310.203 90.9139L310.252 91.4737C310.272 91.7088 310.289 91.9703 310.3 92.2582C310.3 92.5491 310.322 92.8488 310.322 93.1397V102.603L310.309 102.625ZM324.854 92.1128C325.378 92.0845 325.902 92.1854 326.378 92.4067C326.855 92.6281 327.27 92.963 327.587 93.3821C328.221 94.2254 328.541 95.4874 328.547 97.1682C328.55 97.6928 328.472 98.2148 328.314 98.7152C328.166 99.1779 327.939 99.6117 327.644 99.9978C327.363 100.363 327.007 100.664 326.599 100.879C326.178 101.097 325.711 101.209 325.237 101.205C324.713 101.234 324.189 101.133 323.713 100.911C323.236 100.69 322.821 100.355 322.505 99.9361C321.87 99.0942 321.553 97.8293 321.544 96.15C321.541 95.6239 321.62 95.1005 321.777 94.5986C321.924 94.1352 322.151 93.701 322.447 93.316C322.728 92.95 323.084 92.6492 323.492 92.4345C323.914 92.2205 324.381 92.1102 324.854 92.1128ZM324.735 102.863C325.871 102.89 326.993 102.609 327.983 102.052C328.896 101.508 329.624 100.701 330.072 99.7377C330.589 98.6014 330.842 97.3628 330.813 96.1148C330.822 95.3323 330.697 94.554 330.443 93.8141C330.212 93.1585 329.847 92.5581 329.372 92.0511C328.892 91.5441 328.307 91.1497 327.657 90.8963C326.923 90.6156 326.142 90.4765 325.356 90.4864C324.221 90.46 323.099 90.7385 322.108 91.293C321.196 91.8298 320.467 92.6304 320.019 93.5893C319.502 94.724 319.248 95.9612 319.278 97.2078C319.271 97.9916 319.396 98.771 319.649 99.513C319.878 100.177 320.243 100.786 320.72 101.302C321.204 101.811 321.796 102.206 322.452 102.457C323.186 102.739 323.966 102.88 324.753 102.871L324.735 102.863Z" fill="white"/>
</svg>
